<?xml version="1.0" encoding="utf-8"?>
<!-- Generator: Adobe Illustrator 18.1.1, SVG Export Plug-In . SVG Version: 6.00 Build 0)  -->
<svg version="1.1" id="Layer_1" xmlns="http://www.w3.org/2000/svg" xmlns:xlink="http://www.w3.org/1999/xlink" x="0px" y="0px"
	 viewBox="0 199 461 132" enable-background="new 0 199 461 132" xml:space="preserve">
<g>
	<g>
		<path fill="#4D4D4D" d="M42.8,304.6c0.5,0.9,1.3,1.6,2.1,2s1.9,0.7,2.9,0.7c0.7,0,1.4-0.1,1.9-0.3c0.6-0.2,1.1-0.5,1.5-0.8
			s0.8-0.8,1-1.4s0.4-1.1,0.4-1.8c0-0.8-0.2-1.4-0.5-1.9s-0.8-0.9-1.3-1.2c-0.5-0.3-1.1-0.6-1.8-0.8c-0.7-0.3-1.4-0.4-2-0.7
			c-0.7-0.3-1.4-0.5-2-0.8c-0.7-0.3-1.3-0.7-1.8-1.1s-0.9-1-1.3-1.8c-0.3-0.7-0.5-1.5-0.5-2.6c0-0.9,0.2-1.9,0.6-2.5
			c0.3-0.8,0.9-1.4,1.5-1.9c0.7-0.5,1.4-0.8,2.2-1.1c0.8-0.3,1.7-0.4,2.6-0.4c1.2,0,2.3,0.2,3.3,0.6s1.9,1.1,2.6,2.1l-1.8,1.3
			c-0.5-0.8-1.1-1.3-1.8-1.6c-0.7-0.3-1.5-0.5-2.5-0.5c-0.7,0-1.3,0.1-1.9,0.3c-0.6,0.2-1.1,0.4-1.5,0.8s-0.8,0.8-1.1,1.3
			s-0.4,1.1-0.4,1.9c0,1.1,0.3,1.9,0.8,2.5c0.6,0.6,1.3,1,2.1,1.4c0.8,0.3,1.8,0.7,2.7,0.9c1,0.3,1.9,0.6,2.7,1s1.5,1,2.1,1.8
			s0.8,1.9,0.8,3.2c0,1-0.2,1.9-0.6,2.6c-0.3,0.8-0.8,1.4-1.5,1.9c-0.6,0.5-1.4,0.9-2.2,1.2c-0.8,0.3-1.7,0.4-2.5,0.4
			c-1.4,0-2.8-0.3-4-0.8s-2.3-1.4-3.1-2.5L42.8,304.6z"/>
		<path fill="#4D4D4D" d="M70.8,306.5c-0.7,0.8-1.5,1.4-2.4,1.9s-1.9,0.6-2.9,0.6c-1.1,0-2.1-0.2-3-0.6c-0.9-0.3-1.7-0.9-2.4-1.5
			c-0.7-0.7-1.2-1.4-1.5-2.4c-0.3-0.9-0.6-1.9-0.6-3s0.2-2.1,0.6-3c0.3-0.9,0.8-1.7,1.5-2.4c0.7-0.7,1.4-1.2,2.4-1.5
			c0.9-0.3,1.9-0.6,3-0.6c1,0,2,0.3,2.9,0.7s1.7,1,2.4,1.9l-1.4,1.1c-0.5-0.6-1.1-1.1-1.8-1.4c-0.7-0.3-1.4-0.5-2-0.5
			c-0.8,0-1.6,0.2-2.4,0.4c-0.7,0.3-1.3,0.8-1.8,1.3s-0.8,1.2-1.1,1.9c-0.3,0.7-0.4,1.4-0.4,2.3c0,0.8,0.2,1.5,0.4,2.3
			c0.3,0.7,0.6,1.4,1.1,1.9s1.1,0.9,1.8,1.3c0.7,0.3,1.5,0.4,2.4,0.4c0.8,0,1.5-0.2,2.1-0.5c0.7-0.3,1.2-0.8,1.7-1.4L70.8,306.5z"/>
		<path fill="#4D4D4D" d="M73.5,288.7c0-0.4,0.2-0.8,0.4-1c0.3-0.3,0.6-0.4,1-0.4s0.8,0.2,1,0.4c0.3,0.3,0.4,0.6,0.4,1
			s-0.2,0.8-0.4,1c-0.3,0.3-0.6,0.4-1,0.4s-0.8-0.2-1-0.4C73.7,289.4,73.5,289.1,73.5,288.7z M74,294.3h1.9v14.3H74V294.3z"/>
		<path fill="#4D4D4D" d="M81.2,298.4c0-0.3,0-0.6,0-0.9c0-0.4,0-0.8-0.1-1.2c0-0.4,0-0.8-0.1-1.1c0-0.3,0-0.6,0-0.8h1.9
			c0,0.5,0,1,0.1,1.5s0,0.8,0.1,0.9l0,0c0.3-0.8,1-1.4,1.9-2c0.8-0.6,1.9-0.8,3-0.8c0.9,0,1.8,0.3,2.6,0.8c0.8,0.5,1.4,1.3,1.7,2.4
			c0.4-1.1,1.1-1.9,2-2.4s1.9-0.8,2.8-0.8c1.1,0,2,0.2,2.7,0.5s1.3,0.8,1.7,1.4c0.4,0.6,0.7,1.2,0.8,1.9c0.2,0.8,0.3,1.5,0.3,2.3
			v8.5h-1.9v-8.4c0-0.6-0.1-1.1-0.2-1.7c-0.1-0.5-0.3-1-0.5-1.4s-0.6-0.8-1.1-1c-0.4-0.3-1.1-0.4-1.8-0.4c-0.8,0-1.6,0.2-2.1,0.5
			s-1,0.8-1.4,1.2c-0.3,0.5-0.5,1-0.7,1.6s-0.2,1.1-0.2,1.6v8H91V300c0-1.4-0.3-2.4-0.8-3.2c-0.5-0.8-1.3-1.2-2.2-1.2
			c-0.7,0-1.4,0.1-1.9,0.3c-0.6,0.3-1.1,0.6-1.6,1.1c-0.4,0.5-0.8,1.1-1,1.9c-0.3,0.8-0.4,1.6-0.4,2.5v7.1h-1.9
			C81.2,308.5,81.2,298.4,81.2,298.4z"/>
		<path fill="#4D4D4D" d="M120.1,305.9c-0.8,1.1-1.6,1.9-2.7,2.4s-2.2,0.7-3.5,0.7c-1.1,0-2.1-0.2-3-0.6c-0.8-0.3-1.6-0.9-2.3-1.5
			c-0.7-0.7-1.1-1.4-1.4-2.4s-0.5-1.9-0.5-3s0.2-2,0.5-3c0.3-0.9,0.8-1.7,1.5-2.4c0.7-0.7,1.4-1.2,2.3-1.6s1.9-0.6,2.9-0.6
			c1.1,0,2,0.2,2.9,0.6c0.8,0.4,1.5,0.8,2.1,1.5c0.6,0.6,1,1.4,1.3,2.1c0.3,0.8,0.4,1.6,0.4,2.5v1.3h-12c0,0.4,0.1,0.9,0.3,1.5
			c0.2,0.6,0.4,1.2,0.8,1.8c0.4,0.6,0.9,1.1,1.7,1.5c0.7,0.4,1.6,0.6,2.7,0.6c0.9,0,1.9-0.3,2.7-0.7s1.5-1.1,2-1.9L120.1,305.9z
			 M118.7,300.2c0-0.7-0.2-1.3-0.4-1.8c-0.3-0.6-0.6-1-1-1.4s-0.9-0.8-1.6-1c-0.6-0.3-1.3-0.3-1.9-0.3c-1,0-1.9,0.2-2.5,0.6
			s-1.2,0.8-1.6,1.4c-0.4,0.5-0.7,1-0.8,1.5s-0.3,0.8-0.3,1L118.7,300.2L118.7,300.2z"/>
		<path fill="#4D4D4D" d="M137.1,306.1L137.1,306.1c-0.3,0.5-0.7,0.9-1.1,1.3c-0.4,0.3-0.9,0.7-1.4,0.9c-0.5,0.3-1,0.4-1.6,0.5
			s-1.1,0.2-1.6,0.2c-1.1,0-2.1-0.2-3-0.6c-0.9-0.3-1.7-0.9-2.4-1.5c-0.7-0.7-1.2-1.4-1.5-2.4c-0.3-0.9-0.6-1.9-0.6-3s0.2-2.1,0.6-3
			c0.3-0.9,0.8-1.7,1.5-2.4s1.4-1.2,2.4-1.5c0.9-0.3,1.9-0.6,3-0.6c0.5,0,1.1,0.1,1.6,0.2s1.1,0.3,1.6,0.5c0.5,0.3,0.9,0.5,1.4,0.9
			s0.8,0.8,1.1,1.3h0.1v-11.5h1.9v23.4h-1.9L137.1,306.1L137.1,306.1z M137.3,301.5c0-0.8-0.2-1.5-0.4-2.3s-0.8-1.4-1.3-1.9
			s-1.2-0.9-1.9-1.3c-0.8-0.3-1.5-0.4-2.4-0.4c-0.8,0-1.6,0.2-2.4,0.4c-0.7,0.3-1.3,0.8-1.8,1.3s-0.8,1.2-1.1,1.9
			c-0.3,0.7-0.4,1.4-0.4,2.3s0.2,1.5,0.4,2.3c0.3,0.7,0.6,1.4,1.1,1.9s1.1,0.9,1.8,1.3c0.7,0.3,1.5,0.4,2.4,0.4
			c0.8,0,1.6-0.2,2.4-0.4c0.8-0.3,1.4-0.8,1.9-1.3s0.9-1.1,1.3-1.9C137.2,303,137.3,302.3,137.3,301.5z"/>
	</g>
	<g>
		<g>
			<path fill="#4D4D4D" d="M85.7,267.1c-0.2-0.8-0.4-1.5-0.6-2.4c-1.1-4.3-2.3-8.6-3.4-12.9c0-0.1,0-0.2-0.1-0.3c0.2,0,0.3,0,0.3,0
				c3.2,0.2,6.2-0.5,8.7-2.6c1.8-1.4,2.8-3.3,3.3-5.5c0-0.1,0-0.2,0.1-0.3c0,0,0,0,0.1-0.1c0.1,0.1,0.1,0.2,0.1,0.3
				c1,2.5,1.9,5.1,2.9,7.6c0.1,0.3,0.3,0.3,0.5,0.3c1.9,0,3.7,0,5.7,0c0.3,0,0.3-0.1,0.4-0.3c0.9-2.5,1.9-5.1,3-7.6
				c0-0.1,0.1-0.2,0.1-0.3c0,0.1,0.1,0.2,0.1,0.2c0.8,4,3.3,6.5,7.1,7.7c3.3,1,6.6,0.8,9.8-0.7c0.2-0.1,0.4-0.2,0.7-0.3
				c0,0.1,0.1,0.2,0.1,0.3c0.5,1.9,1,3.8,1.5,5.7c0.1,0.3,0,0.3-0.3,0.4c-9.4,2.5-18.9,5.1-28.3,7.6c-3.7,1-7.5,2-11.3,3
				c-0.1,0-0.2,0.1-0.3,0.1C85.8,267.1,85.8,267.1,85.7,267.1z"/>
			<path fill="#4D4D4D" d="M115.2,215.9c1.1,4.2,2.2,8.4,3.4,12.5c0.2,0.6,0.3,1.1,0.4,1.7c0,0.1,0,0.2,0.1,0.3
				c-3-0.2-5.8,0.4-8.2,2c0.3-0.6,0.4-1.2,0.7-1.8c-0.2,0-0.3,0-0.3,0c-2.4,0-4.7,0-7.1,0c-0.3,0-0.3,0.1-0.4,0.3
				c-0.8,3-1.8,6.2-2.7,9.2c-0.3,0.8-0.4,1.8-0.4,2.7c0,0.1,0,0.2-0.1,0.2h-0.1c0-0.1-0.1-0.1-0.1-0.2c0-1.4-0.4-2.5-0.8-3.8
				c-0.8-2.7-1.6-5.5-2.4-8.2c-0.1-0.2-0.2-0.3-0.3-0.3c-2.4,0-4.7,0-7.2,0c-0.1,0-0.2,0-0.3,0c0.3,0.6,0.4,1.2,0.7,1.8
				c0,0,0,0,0,0.1c-2-1.4-4.2-2.1-6.7-2.1c-2.5-0.1-4.7,0.5-6.9,1.7c0-0.1-0.1-0.2-0.1-0.3c-0.4-1.5-0.8-3.1-1.3-4.7
				c0-0.1-0.1-0.2-0.1-0.3s0-0.1,0-0.2c4.2-1.1,8.3-2.2,12.5-3.3c8.4-2.3,16.8-4.5,25.2-6.8C113.5,216.4,114.3,216.1,115.2,215.9
				L115.2,215.9z"/>
			<path fill="#4D4D4D" d="M191.9,246c-0.1,0.2-0.2,0.3-0.3,0.3c-0.8,0.8-1.7,1.3-2.7,1.4c-1.3,0.2-2.5,0-3.7-0.7
				c-1-0.6-1.8-1.5-2.3-2.6c-1.2-2.9-1.2-5.8,0.4-8.5c0.9-1.6,2.3-2.6,4.2-2.9c1.4-0.3,2.6,0,3.7,0.8c0.3,0.3,0.5,0.5,0.8,0.8
				c0,0,0.1-0.1,0.1-0.2c0.3-0.9,1.1-1.4,2-1.3c0.9,0.1,1.6,0.8,1.7,1.8c0,0.1,0,0.2,0,0.3c0,3.8,0,7.6,0,11.4c0,1.4-0.3,2.5-1,3.7
				c-0.8,1.4-2.1,2.2-3.6,2.6c-2.5,0.7-4.8,0.3-7.1-0.6c-0.4-0.2-0.8-0.4-1.1-0.8c-0.6-0.5-0.7-1.2-0.3-1.9c0.3-0.6,0.9-1.2,1.8-0.9
				c0.5,0.2,1,0.3,1.5,0.5c1,0.4,2,0.7,3.1,0.6c1.5-0.1,2.6-1,2.8-2.5C191.9,247,191.9,246.5,191.9,246z M191.9,240.1
				c0-0.6-0.2-1.5-0.8-2.4c-1.1-1.6-3.2-1.6-4.4-0.1c-1,1.4-1.1,3.8-0.2,5.3c1.1,1.8,3.6,1.8,4.7,0
				C191.7,242.2,191.9,241.4,191.9,240.1z"/>
			<path fill="#4D4D4D" d="M163.1,241.7c0.3,1.3,0.8,2,2,2.5c1.3,0.4,2.5,0.3,3.6-0.3c0.4-0.2,0.8-0.4,1.3-0.7
				c0.1-0.1,0.3-0.1,0.4-0.2c0.8-0.4,1.5,0,1.9,0.4c0.5,0.7,0.5,1.4,0,2c-0.5,0.7-1.3,1.1-2,1.4c-1.8,0.8-3.6,1.1-5.6,0.7
				c-2.8-0.6-4.6-2.4-5.3-5.1c-0.7-2.6-0.3-5,1.4-7.1c2.5-3.1,7.2-3.3,10-0.3c1.3,1.4,2,3,2,4.9c0,1.2-0.5,1.7-1.7,1.7
				c-2.1,0-4.2,0-6.3,0c-0.5,0-1,0-1.5,0C163.4,241.7,163.2,241.7,163.1,241.7z M163,239.1c2,0,4,0,6,0c0.2-1.4-1.4-2.9-3-2.9
				C164.5,236.1,162.9,237.6,163,239.1z"/>
			<path fill="#4D4D4D" d="M134.5,241.7c0.2,1,0.7,1.8,1.5,2.3c1.2,0.6,2.4,0.7,3.6,0.2c0.5-0.3,1.1-0.5,1.6-0.8
				c0.3-0.1,0.4-0.3,0.7-0.3c0.6-0.3,1.2-0.1,1.6,0.4s0.6,1.2,0.3,1.7s-0.6,0.8-1.1,1.2c-1.3,0.8-2.6,1.3-4.1,1.4
				c-1.5,0.2-3,0-4.3-0.7c-2-1-3.2-2.6-3.6-4.8c-0.5-2.5-0.1-4.7,1.5-6.8c2.5-3.2,7.2-3.4,10-0.4c1.2,1.3,1.9,2.7,2.1,4.4
				c0,0.3,0,0.7,0,1.1c-0.1,0.7-0.6,1.1-1.3,1.2c-0.2,0-0.3,0-0.6,0c-2.5,0-5.1,0-7.5,0C134.7,241.7,134.6,241.7,134.5,241.7z
				 M140.4,239.1c0.1-1.5-1.4-3-3-2.9s-3,1.6-2.9,2.9C136.4,239.1,138.4,239.1,140.4,239.1z"/>
			<path fill="#4D4D4D" d="M149.4,234.5c0.5-0.7,1.1-1.1,1.9-1.3c1.8-0.4,3.6-0.3,5.1,0.8c1.2,0.8,1.8,2,1.9,3.4
				c0.1,0.6,0.1,1.1,0.1,1.7c0,2.1,0,4.3,0,6.4c0,0.7-0.2,1.3-0.8,1.7c-0.6,0.5-1.3,0.5-1.9,0.3c-0.7-0.3-1-0.8-1.1-1.6
				c0-0.2,0-0.3,0-0.5c0-2.1,0-4.2,0-6.4c0-0.3,0-0.6-0.1-0.9c-0.3-1.4-1.4-1.9-2.6-1.9c-1.4,0.1-2.2,1.1-2.2,2.5c0,2.2,0,4.4,0,6.6
				c0,0.3,0,0.6-0.1,0.8c-0.3,1-1,1.5-2,1.4c-0.8-0.1-1.6-0.8-1.7-1.7c0-0.3-0.1-0.5-0.1-0.8c0-3.2,0-6.4,0-9.6c0-0.3,0-0.7,0.1-1
				c0.3-1.3,1.8-1.9,2.9-1.2C149,233.7,149.2,234,149.4,234.5z"/>
			<path fill="#4D4D4D" d="M203.2,241.7c0.1-0.2,0.1-0.3,0.2-0.3c0.9-2.3,1.8-4.6,2.7-6.9c0.3-0.8,0.8-1.3,1.7-1.4
				c1.4-0.2,2.5,1.2,1.9,2.5c-0.6,1.5-1.2,3-1.9,4.6c-1.5,3.8-3,7.6-4.6,11.4c-0.2,0.4-0.4,0.8-0.8,1.2c-1,0.8-2.8,0.3-3-0.9
				c-0.1-0.5,0-1,0.3-1.4c0.4-1.1,0.8-2.2,1.4-3.3c0.3-0.6,0.3-1.1,0-1.7c-1.3-3.2-2.5-6.4-3.8-9.6c-0.1-0.3-0.2-0.6-0.3-0.9
				c-0.2-1.4,1.2-2.1,2.1-1.9c0.8,0.2,1.4,0.6,1.6,1.4c0.8,2.3,1.7,4.6,2.5,6.9C203.1,241.5,203.2,241.5,203.2,241.7z"/>
			<path fill="#4D4D4D" d="M178.1,234.7c0.3-0.3,0.6-0.7,0.9-0.9c0.6-0.5,1.3-0.7,2-0.6c0.9,0.1,1.6,0.8,1.7,1.8
				c0.1,0.8-0.2,1.3-1,1.6c-0.7,0.3-1.4,0.6-2,0.8c-0.3,0.1-0.5,0.3-0.7,0.4c-0.6,0.4-0.9,1-0.9,1.8c0,1.9,0,3.9,0,5.8
				c0,0.4-0.1,0.8-0.3,1.3c-0.3,0.8-1.2,1.1-2,0.9c-0.8-0.2-1.4-0.8-1.5-1.7c0-0.2,0-0.3,0-0.5c0-3.4,0-6.9,0-10.3
				c0-1.4,1.1-2.2,2.4-2c0.3,0,0.5,0.1,0.7,0.2c0.4,0.2,0.7,0.5,0.8,1C178.1,234.5,178.1,234.6,178.1,234.7z"/>
			<path fill="#4D4D4D" d="M82.7,237.2c2.2,0,3.8,1.5,3.9,3.6c0.1,0.8,0,1.5-0.3,2.3c-0.7,1.6-2.3,2.3-3.9,2.1
				c-2.5-0.3-3.6-2.3-3.4-4.5c0.2-1.3,0.8-2.3,1.9-3C81.4,237.3,82.1,237.1,82.7,237.2z"/>
			<path fill="#4D4D4D" d="M118,237.2c2.2,0,3.8,1.5,3.9,3.8c0.1,1-0.2,1.9-0.8,2.8c-0.8,1.1-2.1,1.5-3.5,1.4
				c-2-0.3-3.3-1.5-3.4-3.6c-0.1-1.4,0.3-2.7,1.5-3.6C116.3,237.4,117.1,237.1,118,237.2z"/>
		</g>
		<g>
			<path fill="#4D4D4D" d="M385.9,245.5c-0.5,2.3-2.2,3.3-4.2,3.8c-3.4,0.8-6.8,0.8-10.1,0c-1.8-0.4-3.2-1.3-4.7-2.5
				c0.8-0.9,1.5-1.8,2.3-2.7c0.4,0.3,0.8,0.6,1.2,0.8c1.4,0.8,2.8,1.2,4.4,1.4c2,0.2,4,0.1,5.9-0.4c0.4-0.1,0.8-0.3,1.3-0.5
				c0.2-0.1,0.3-0.3,0.3-0.5s-0.3-0.4-0.4-0.4c-1-0.3-1.9-0.4-3-0.6c-2.2-0.2-4.4-0.3-6.5-0.5c-0.7-0.1-1.4-0.3-2-0.4
				c-3.4-1.1-3.4-5.1-1.3-6.9c0.9-0.8,1.9-1.2,3.1-1.4c3.2-0.7,6.4-0.7,9.7,0.3c1.4,0.4,2.7,1.1,3.8,2.2c-0.8,0.8-1.7,1.6-2.5,2.5
				c-2.2-1.7-4.8-1.9-7.5-1.8c-1,0.1-2,0.3-3,0.4c-0.4,0.1-0.8,0.3-1.1,0.5c-0.2,0.1-0.3,0.4-0.3,0.6c0,0.2,0.3,0.3,0.5,0.3
				c1.1,0.2,2.2,0.3,3.3,0.3c1.9,0.2,4,0.3,5.9,0.5c1,0.1,2,0.4,3,0.9c0.9,0.6,1.6,1.4,1.9,2.5c0,0.1,0.1,0.2,0.1,0.3
				C385.9,244.6,385.9,245,385.9,245.5z"/>
			<path fill="#4D4D4D" d="M233.8,213.7c1,0.7,1,1.8,1.2,2.8c0.4,3-0.5,5.8-2.1,8.3c-0.2,0.3-0.3,0.6-0.1,0.9
				c0.3,0.6,0.5,1.3,0.8,1.9c0.6,1,1.5,1,2.3,0.2c0.6-0.7,0.8-1.4,1-2.3c0.2-1.2,0.5-2.3,1.4-3.2c1.4-1.3,3-0.9,3.6,0.8
				c0.1,0.2,0.3,0.3,0.3,0.5c0.1,0.2,0.3,0.4,0.3,0.7c0.2,1,0,2-0.3,3c-0.1,0.4,0,0.7,0.3,0.9s0.6,0.1,0.8-0.2
				c0.4-0.4,0.8-0.8,1.2-1.4c0.7-1,1.3-2,1.9-3c0.1-0.2,0.1-0.4,0.1-0.7c0-0.2-0.1-0.4-0.1-0.6c0-0.5,0.3-0.9,0.8-0.9s0.9,0.3,1,0.8
				c0,0.2,0,0.3,0,0.4c-0.3,0.7,0.1,1.2,0.5,1.6c0.4,0.5,0.8,1,1.2,1.6c0.7,1.2,0.4,2.4-0.6,3.1c-1.1,0.8-2.5,0.8-3.4-0.3
				c-0.3-0.3-0.4-0.7-0.1-0.9c0.3-0.3,0.6-0.3,0.9,0.1c0.6,0.5,1,0.6,1.5,0.3c0.8-0.4,1-1,0.6-1.8c-0.2-0.3-0.4-0.7-0.7-0.9
				c-0.3-0.3-0.5-0.6-0.8-0.9c-0.2,0.3-0.4,0.7-0.6,1c-0.7,1-1.4,2.1-2.2,3c-0.4,0.5-1.1,0.8-1.9,0.7c-0.4-0.1-0.8-0.3-1.2-0.5
				c-1.7,1.2-3,0.9-4.2-0.8c-0.1,0.2-0.3,0.3-0.3,0.4c-1.4,1.6-3.2,1.5-4.4-0.3c-0.3-0.5-0.5-1-0.8-1.6c-0.3,0.4-0.6,0.9-0.8,1.4
				c-0.4,0.6-0.8,0.6-1.2,0.1c0-0.2,0-0.3,0-0.5c0.5-0.8,1.1-1.6,1.6-2.4c0.1-0.1,0.1-0.3,0.1-0.5c-0.3-1.6-0.3-3.3-0.3-4.9
				c0.1-1.5,0.2-3.1,0.8-4.6c0.3-0.6,0.7-1.2,1.3-1.4C233.3,213.7,233.5,213.7,233.8,213.7z M239.5,228.3c0.8,0,1.4-0.6,1.4-1.3
				s0-1.4,0.1-2s0.1-1-0.2-1.6c-0.4-0.8-0.9-1-1.7-0.3c-0.9,0.9-1.4,3-0.8,4.2C238.5,227.8,238.9,228.2,239.5,228.3z M232.2,223.3
				c1.6-2,2.2-6.6,1.1-8.4C231.7,217.6,232.2,220.4,232.2,223.3z"/>
			<path fill="#4D4D4D" d="M270.4,236.5c-1,0.6-2,1.2-3,1.8c-0.8-1.2-1.9-1.9-3.1-2.5c-1.9-0.9-4-1.3-6.2-1.4
				c-2.6-0.1-5.3,0.2-7.7,1.1c-1.8,0.7-3.3,1.7-4.2,3.4c-1.4,2.6-1,6.6,2.5,8.7c1.5,0.9,3.1,1.4,4.8,1.7c2.6,0.4,5.3,0.4,8-0.2
				c2.5-0.5,4.5-1.9,5.8-4c0.2-0.3,0.3-0.7,0.3-1.1c-3.6,0-6.9,0-10.4,0c0-1.2,0-2.4,0-3.6c4.6,0,9.2,0,13.8,0c0,4.1,0,8.1,0,12.3
				c-1.2,0-2.3,0-3.5,0c0-0.8,0-1.7,0-2.5c-0.1,0-0.1,0-0.2,0c-2,1.6-4.4,2.4-6.9,2.7c-3.5,0.4-6.9,0.3-10.2-0.8
				c-2.5-0.8-4.7-1.9-6.3-4.1c-3.2-4.1-3-11.2,2.5-14.7c2.1-1.4,4.5-2,6.9-2.4c3.3-0.4,6.5-0.3,9.7,0.5c2.5,0.7,4.8,1.9,6.6,4
				C269.9,235.9,270.1,236.2,270.4,236.5z"/>
			<path fill="#4D4D4D" d="M320,249.7c0-5.1,0-10.2,0-15.2c0.8,0,1.6,0,2.5,0c0.2,0,0.3,0.2,0.5,0.3c5.1,3,10.2,6,15.2,9.1
				c0.2,0.1,0.3,0.2,0.5,0.3c0-3.2,0-6.4,0-9.5c1.2,0,2.4,0,3.6,0c0,5.1,0,10.1,0,15.2c-1-0.1-2,0.2-3-0.4c-5-3-10-6-15.1-9.1
				c-0.2-0.1-0.3-0.2-0.5-0.3c0,3.3,0,6.5,0,9.7C322.3,249.7,321.2,249.7,320,249.7z"/>
			<path fill="#4D4D4D" d="M344,249.7c3.8-5.6,7.6-11.1,11.4-16.6c3.9,5.5,7.7,11,11.6,16.6c-0.7,0-1.2,0-1.8,0c-0.8,0-1.5,0-2.3,0
				c-0.2,0-0.4-0.1-0.5-0.3c-0.5-0.7-0.9-1.4-1.5-2.1c-0.1-0.2-0.3-0.3-0.6-0.3c-3.3,0-6.6,0-9.9,0c-0.3,0-0.4,0.1-0.6,0.3
				c-0.4,0.7-0.9,1.4-1.4,2c-0.1,0.2-0.3,0.3-0.4,0.3C346.7,249.7,345.4,249.7,344,249.7z M355.4,239.3c-0.9,1.4-1.9,2.7-2.8,4.1
				c1.9,0,3.7,0,5.7,0C357.3,242,356.3,240.7,355.4,239.3z"/>
			<path fill="#4D4D4D" d="M306.3,233.1c3.9,5.6,7.7,11,11.6,16.6c-1,0-1.9-0.1-2.7,0c-1.2,0.2-2-0.3-2.5-1.4
				c-0.5-1.1-1.4-1.4-2.5-1.4c-2.9,0.1-5.7,0-8.6,0c-0.3,0-0.5,0.1-0.7,0.3c-0.4,0.7-0.9,1.4-1.4,2c-0.1,0.1-0.3,0.3-0.3,0.3
				c-1.4,0-2.7,0-4.2,0C298.7,244.1,302.5,238.6,306.3,233.1z M309.2,243.4c-0.9-1.4-1.9-2.7-2.9-4.2c-0.9,1.4-1.9,2.7-2.8,4.2
				C305.4,243.4,307.2,243.4,309.2,243.4z"/>
			<path fill="#4D4D4D" d="M274.6,234.4c1.2,0,2.4,0,3.6,0c0,0.2,0,0.4,0,0.6c0,2.6,0,5.3,0,7.9c0,1.3,0.5,2.2,1.7,2.7
				c0.7,0.3,1.4,0.5,2.2,0.6c2,0.3,4.1,0.3,6-0.3c0.3-0.1,0.7-0.3,1-0.4c0.9-0.5,1.4-1.4,1.4-2.5c0-2.6,0-5.3,0-8c0-0.2,0-0.3,0-0.6
				c1.2,0,2.4,0,3.6,0c0,0.2,0,0.3,0,0.5c0,2.6,0,5.2,0,7.8c0,3.1-1.5,5.3-4.6,6.4c-2.2,0.8-4.6,0.8-6.9,0.7c-1.4-0.1-2.9-0.3-4.2-1
				c-2.5-1.2-3.8-3.1-3.8-5.9c0-2.6,0-5.3,0-8C274.6,234.8,274.6,234.7,274.6,234.4z"/>
			<path fill="#4D4D4D" d="M233.9,234.4c1.2,0,2.3,0,3.5,0c0,5.1,0,10.1,0,15.2c-1.2,0-2.3,0-3.5,0
				C233.9,244.5,233.9,239.5,233.9,234.4z"/>
			<path fill="#4D4D4D" d="M319.1,260.1c0.6,0.8,1.1,1.5,1.6,2.2c-0.5,0.2-0.8,0.1-1.1-0.3c-0.3-0.6-0.8-1.1-1.2-1.6
				c-0.1-0.1-0.3-0.3-0.3-0.3c-0.6,0-1.2,0-1.9,0c0,0.8,0,1.5,0,2.3c-0.3,0-0.4,0-0.6,0c0-1.7,0-3.4,0-5.2c1.3,0,2.5-0.1,3.7,0
				c0.8,0.1,1.3,0.6,1.3,1.4s-0.4,1.2-1.3,1.4C319.3,260,319.2,260,319.1,260.1z M316.2,259.4c1.1,0,2.1,0,3.1,0
				c0.5,0,0.8-0.3,0.8-0.8s-0.3-0.8-0.8-0.8c-0.8-0.1-1.6-0.1-2.5-0.1c-0.2,0-0.4,0-0.7,0C316.2,258.3,316.2,258.8,316.2,259.4z"/>
			<path fill="#4D4D4D" d="M294.7,261.3c0-1.4,0-2.7,0-4.1c0.3,0,0.4,0,0.6,0c0,1.7,0,3.5,0,5.2c-0.4,0.2-0.7,0-0.9-0.3
				c-1.2-1.4-2.4-2.6-3.5-3.9c-0.1-0.1-0.2-0.2-0.2-0.3l-0.1,0.1c0,1.5,0,3,0,4.5c-0.3,0-0.4,0-0.6,0c0-1.7,0-3.4,0-5.2
				c0.5-0.1,0.9-0.1,1.4,0.4c0.9,1.2,2,2.2,3,3.4c0.1,0.1,0.2,0.3,0.3,0.4C294.6,261.3,294.6,261.3,294.7,261.3z"/>
			<path fill="#4D4D4D" d="M306.8,262.4c0-1.8,0-3.5,0-5.2l0.1-0.1c1.1,0,2.2-0.1,3.3,0.1c1.3,0.2,1.9,1.2,1.9,2.5
				c0,1.4-0.8,2.3-2,2.5c-0.3,0.1-0.4,0.1-0.7,0.1C308.7,262.4,307.7,262.4,306.8,262.4z M307.5,261.8c0.8,0,1.4,0,2.1,0
				c0.2,0,0.3-0.1,0.5-0.1c0.9-0.3,1.5-0.9,1.5-2c0-1-0.5-1.8-1.5-1.9c-0.8-0.1-1.7,0-2.6,0C307.5,259.1,307.5,260.4,307.5,261.8z"
				/>
			<path fill="#4D4D4D" d="M329.4,257.7c0,1.6,0,3.1,0,4.6c-0.2,0-0.3,0-0.6,0c0-1.8,0-3.5,0-5.2c0.5-0.1,0.9,0,1.3,0.4
				c0.9,1.2,2,2.3,3,3.4c0.1,0.1,0.3,0.3,0.4,0.3c0-1.4,0-2.7,0-4.2c0.3,0,0.4,0,0.6,0c0,1.7,0,3.5,0,5.2c-0.4,0.1-0.7,0-0.9-0.3
				c-1.1-1.3-2.2-2.5-3.4-3.7C329.7,258.1,329.6,258,329.4,257.7z"/>
			<path fill="#4D4D4D" d="M379,257.9c0,1.4,0,3,0,4.5c-0.3,0-0.3,0-0.6,0c0-1.7,0-3.4,0-5.2c0.5-0.1,0.9,0,1.4,0.4
				c1.1,1.3,2.2,2.5,3.4,3.8c0-1.5,0-2.9,0-4.2c0.3,0,0.4,0,0.6,0c0,1.7,0,3.4,0,5.2c-0.3,0.1-0.7,0-0.9-0.3
				C381.6,260.7,380.3,259.3,379,257.9C379.1,257.8,379,257.9,379,257.9z"/>
			<path fill="#4D4D4D" d="M238.5,257.2c0,0.2,0,0.3,0,0.5c-1.4,0-2.6,0-4,0c0,0.6,0,1.1,0,1.7c1.1,0,2.2,0,3.3,0c0,0.2,0,0.3,0,0.5
				c-1.1,0-2.2,0-3.3,0c0,0.7,0,1.3,0,1.9c1.4,0,2.7,0,4.1,0c0,0.2,0,0.3,0,0.5c-1.5,0-3.1,0-4.7,0c0-1.7,0-3.4,0-5.2
				C235.5,257.2,237,257.2,238.5,257.2z"/>
			<path fill="#4D4D4D" d="M343,257.2c-0.8,0.7-1.6,1.3-2.5,1.9c0.9,1.1,1.9,2.1,2.9,3.2c-0.5,0.1-0.8,0.1-1.2-0.3
				c-0.7-0.8-1.4-1.6-2.2-2.5c-0.5,0.3-0.9,0.8-1.4,1.1c-0.1,0.1-0.1,0.3-0.1,0.4c0,0.4,0,0.9,0,1.4c-0.3,0-0.4,0-0.6,0
				c0-1.7,0-3.5,0-5.2c0.2,0,0.4,0,0.6,0c0,0.8,0,1.8,0,2.7c0.2-0.2,0.3-0.3,0.4-0.3c0.9-0.7,1.8-1.4,2.7-2.1
				C342.1,257.1,342.5,257,343,257.2z"/>
			<path fill="#4D4D4D" d="M241.3,262.3c0.5-1,1-1.9,1.4-2.9c0.3-0.7,0.8-1.4,1.1-2.1c0.2-0.3,0.8-0.3,1,0c0.8,1.6,1.6,3.2,2.5,4.8
				c0,0.1,0,0.1,0.1,0.2c-0.5,0.2-0.8,0-0.9-0.5c-0.2-0.8-0.7-0.9-1.4-0.8s-1.4,0-2,0c-0.3,0-0.5,0.1-0.6,0.3
				c-0.1,0.2-0.2,0.3-0.3,0.5C242.1,262.4,242.1,262.4,241.3,262.3z M243,260.4c0.9,0,1.8,0,2.7,0c-0.4-0.9-0.9-1.8-1.4-2.7
				C243.9,258.6,243.5,259.5,243,260.4z"/>
			<path fill="#4D4D4D" d="M274.8,262.3c-0.5,0.2-0.8,0-0.9-0.4c-0.2-0.8-0.7-0.9-1.4-0.8c-0.7,0.1-1.4,0-2,0
				c-0.3,0-0.4,0.1-0.5,0.3c-0.1,0.2-0.2,0.3-0.3,0.5c-0.2,0.4-0.4,0.6-0.9,0.4c0.3-0.7,0.7-1.4,1-2c0.5-0.9,1-1.9,1.5-2.9
				c0.1-0.2,0.3-0.3,0.4-0.3c0.3,0,0.5-0.1,0.6,0.3C273.1,259,273.8,260.6,274.8,262.3C274.7,262.2,274.7,262.3,274.8,262.3z
				 M270.4,260.3c0.9,0,1.8,0,2.7,0c-0.4-0.9-0.9-1.8-1.4-2.7C271.2,258.6,270.8,259.5,270.4,260.3z"/>
			<path fill="#4D4D4D" d="M357.3,262.3c0.5-1,1-2,1.6-3c0.3-0.6,0.7-1.3,0.9-1.9c0.2-0.3,0.8-0.3,1-0.1c0.8,1.6,1.7,3.3,2.5,5
				c-0.4,0.2-0.8,0.1-0.9-0.4c-0.3-0.8-0.7-1-1.4-0.9c-0.7,0.1-1.3,0-1.9,0c-0.3,0-0.5,0.1-0.6,0.3c-0.1,0.2-0.2,0.3-0.3,0.5
				C358,262.3,357.8,262.5,357.3,262.3z M360.3,257.6c-0.5,0.9-0.9,1.9-1.4,2.7c0.9,0,1.8,0,2.7,0
				C361.2,259.5,360.7,258.6,360.3,257.6z"/>
			<path fill="#4D4D4D" d="M276.5,257.7c0-0.3,0-0.4,0-0.6c1.9,0,3.7,0,5.7,0c0,0.2,0,0.3,0,0.5c-0.8,0-1.7,0-2.5,0
				c0,1.6,0,3.1,0,4.7c-0.3,0-0.4,0-0.6,0c0-1.5,0-3,0-4.6C278.2,257.7,277.4,257.7,276.5,257.7z"/>
			<path fill="#4D4D4D" d="M254.9,257.1c0,0.2,0,0.3,0,0.5c-0.8,0-1.6,0-2.5,0c0,1.5,0,3,0,4.7c-0.3,0-0.4,0-0.7,0c0-1.5,0-3,0-4.7
				c-0.8,0-1.7,0-2.5,0c0-0.2,0-0.3,0-0.5C251.1,257.1,253,257.1,254.9,257.1z"/>
			<path fill="#4D4D4D" d="M368.3,262.4c-0.3,0-0.4,0-0.6,0c0-1.5,0-3,0-4.7c-0.8,0-1.7,0-2.5,0c0-0.2,0-0.3,0-0.5
				c1.9,0,3.7,0,5.6,0c0,0.2,0,0.3,0,0.5c-0.8,0-1.6,0-2.5,0C368.3,259.2,368.3,260.8,368.3,262.4z"/>
			<path fill="#4D4D4D" d="M350.4,261.8c1.4,0,2.7,0,4.1,0c0,0.2,0,0.3,0,0.5c-1.5,0-3.1,0-4.7,0c0-1.7,0-3.5,0-5.2
				c0.2,0,0.3,0,0.6,0C350.4,258.7,350.4,260.2,350.4,261.8z"/>
			<path fill="#4D4D4D" d="M261.2,257.1c0.2,0,0.3,0,0.6,0c0,1.5,0,3,0,4.7c1.4,0,2.7,0,4.2,0c0,0.3,0,0.3,0,0.6c-1.6,0-3.1,0-4.7,0
				C261.2,260.6,261.2,258.9,261.2,257.1z"/>
			<path fill="#4D4D4D" d="M374.6,262.4c-0.2,0-0.3,0-0.6,0c0-1.7,0-3.5,0-5.2c0.2,0,0.3,0,0.6,0
				C374.6,258.9,374.6,260.6,374.6,262.4z"/>
			<path fill="#4D4D4D" d="M285.4,257.1c0.2,0,0.3,0,0.6,0c0,1.7,0,3.5,0,5.2c-0.2,0-0.3,0-0.6,0
				C285.4,260.6,285.4,258.9,285.4,257.1z"/>
			<path fill="#4D4D4D" d="M325,262.4c-0.2,0-0.3,0-0.5,0c0-1.7,0-3.4,0-5.2c0.2,0,0.3,0,0.5,0C325,258.9,325,260.6,325,262.4z"/>
			<path fill="#4D4D4D" d="M299.8,261.3c-0.1-0.1-0.2-0.3-0.2-0.3c0-0.5,0.3-0.8,0.7-1.1c0.2-0.1,0.3-0.2,0.5-0.3
				c0.8-0.3,0.9-0.4,1.1-1.3c0.3-0.1,0.4,0,0.3,0.3c-0.1,0.7-0.5,1-1.1,1.2c-1,0.3-1,0.4-1.3,1.3
				C299.9,261.2,299.8,261.3,299.8,261.3z"/>
		</g>
	</g>
	<g>
		<path fill="#4D4D4D" d="M338.8,290.6c-0.7-3.3,0.8-5.9,5.3-8.6c3.9-2.4,10.3-4.4,12.8-4.8c3-0.5,5.7,0.7,7.3,2.5
			c1.7,1.8,2.9,3.4,3.6,5.8c1,2.9,1,5.8-1.7,9c-2.3,2.7-8.6,7.1-13,9.1c-4.4,1.9-8-0.2-10.3-3.8
			C340.6,296.3,339.4,293.5,338.8,290.6"/>
		<path fill="#4D4D4D" d="M349.6,305.8c0.5-0.8,1.3-1,2.5-0.7c1,0.3,2.5,1,2.8,1.4c0.5,0.5,0.7,1,0.6,1.8c-0.1,0.6-0.3,1.2-0.6,1.8
			c-0.4,0.8-1.1,1.4-1.9,1.4s-2.6-0.2-3.6-0.6s-1.1-1.4-0.8-2.5C348.8,307.3,349.1,306.5,349.6,305.8"/>
		<path fill="#4D4D4D" d="M377,310.9c-4.1,0-5.5-3.2-5.5-6s1.4-6,5.5-6s5.5,3.2,5.5,6S381,310.9,377,310.9 M377,298.2
			c-4.5,0-6.6,3.5-6.6,6.7s2,6.7,6.6,6.7c4.5,0,6.6-3.5,6.6-6.7C383.5,301.7,381.5,298.2,377,298.2"/>
		<path fill="#4D4D4D" d="M389.5,301.8h-1.4v-2.6c0-0.6-0.3-0.6-0.4-0.6c-0.2,0-0.4,0-0.4,0.6v2.6h-1.4c-0.3,0-0.3,0.1-0.3,0.3
			s0.1,0.3,0.3,0.3h1.4v8.6c0,0.6,0.3,0.6,0.4,0.6c0.2,0,0.4,0,0.4-0.6v-8.6h1.4c0.3,0,0.3-0.1,0.3-0.3S389.8,301.8,389.5,301.8"/>
		<path fill="#4D4D4D" d="M397,307.2c-0.6-0.2-2.2-0.8-2.9-1c-1.4-0.5-1.9-1.2-1.9-2.1c0-1.4,1.9-2.4,3.7-2.4c1.1,0,2.4,0.3,3.4,0.8
			c0.5,0.3,0.1,0.8-0.3,0.6c-0.8-0.4-1.4-0.8-3-0.8c-1.4,0-2.8,0.6-2.8,1.8c0,0.7,0.6,1.2,1.4,1.4c0.3,0.1,2.2,0.8,2.5,0.8
			c1.8,0.6,2.8,1.3,2.8,2.6c0,1.6-1.7,2.6-4.2,2.6c-2.1,0-3.5-0.8-4.1-1.4c-0.5-0.4,0.1-0.9,0.5-0.5s1.5,1.4,3.6,1.4
			c1.7,0,3-0.9,3-2.1C398.9,307.9,397.9,307.5,397,307.2"/>
		<path fill="#4D4D4D" d="M411.1,301.7c-0.2,0-0.4,0-0.4,0.6v5.8c0,0.8-0.1,1.4-0.4,1.9c-0.5,0.7-1.5,1.1-3,1.1
			c-1.4,0-2.4-0.4-2.9-1.1c-0.3-0.5-0.5-1.1-0.5-1.9v-5.8c0-0.6-0.3-0.6-0.4-0.6c-0.2,0-0.4,0-0.4,0.6v6.1c0,1.9,1.7,3.1,4.2,3.1
			c2.6,0,4.2-1.3,4.2-3.1v-6.1C411.6,301.7,411.3,301.7,411.1,301.7"/>
		<path fill="#4D4D4D" d="M422.2,311.4c0.4,0.3,0.7,0.1,0.8,0s0.3-0.3-0.2-0.7l-5.8-4.5l5.7-4.1c0.3-0.3,0.2-0.4,0.2-0.4
			c-0.1-0.1-0.2-0.2-0.5,0l-6.4,4.5v-8.5c0-0.6-0.3-0.6-0.4-0.6c-0.2,0-0.4,0-0.4,0.6V311c0,0.6,0.3,0.6,0.4,0.6
			c0.2,0,0.4,0,0.4-0.6v-4.5L422.2,311.4z"/>
		<path fill="#4D4D4D" d="M429.3,311.1c-2.9,0-3.9-2.4-3.9-4.4c0-2.2,1.3-4.4,3.9-4.4c2.8,0,3.8,2.4,3.8,4.4
			C433.2,308.7,432.2,311.1,429.3,311.1 M433.6,301.7c-0.2,0-0.4,0-0.4,0.6v2c-0.5-1.3-1.8-2.5-3.9-2.5c-3.3,0-4.8,2.5-4.8,4.9
			s1.3,4.9,4.9,4.9c2.2,0,3.4-1.4,3.8-2.5v2c0,0.6,0.3,0.6,0.4,0.6c0.2,0,0.4,0,0.4-0.6v-8.7C434.1,301.8,433.7,301.7,433.6,301.7"
			/>
	</g>
	<g id="_x37_O31CV_2_">
		<g>
			<path fill="#333333" d="M168.7,288.8c0.1,0,0.3,0,0.3,0c3.4,0,6.8,0,10.2,0c0.2,0,0.3,0.1,0.5,0.3c3.3,4.1,6.6,8.1,9.9,12.3
				c0.8,1.1,1.7,2.1,2.6,3.2c0.1,0.1,0.1,0.2,0.2,0.2c0-5.3,0-10.6,0-15.8c0.1,0,0.2,0,0.3,0c1.9,0,3.7,0,5.6,0
				c0.3,0,0.3,0.1,0.3,0.3c0,6.8,0,13.6,0,20.4c0,0.1,0,0.2,0,0.3c-0.1,0-0.3,0-0.3,0c-3.4,0-6.8,0-10.2,0c-0.3,0-0.3-0.1-0.5-0.3
				c-2.1-2.6-4.2-5.2-6.3-7.7c-2-2.5-4.1-5-6.1-7.5c-0.1-0.2-0.3-0.3-0.4-0.4c0,5.3,0,10.6,0,15.9c-0.2,0-0.3,0-0.3,0
				c-1.9,0-3.7,0-5.5,0c-0.1,0-0.3,0-0.3,0C168.7,303,168.7,295.9,168.7,288.8z"/>
			<path fill="#333333" d="M219.7,288.5c0.3,0,0.7,0.1,1,0.1c0.9,0.1,1.9,0.1,2.9,0.2c1.1,0.1,2.2,0.3,3.2,0.8
				c1.2,0.7,2.1,1.6,2.4,3c0.1,0.4,0.2,0.8,0.2,1.3c0,3.6,0,7.2,0,10.8c0,1-0.2,2-0.8,2.9c-0.8,1-1.8,1.8-3,2
				c-0.8,0.2-1.8,0.3-2.7,0.4c-3.5,0.3-6.9,0.2-10.5,0.2c-1.4,0-2.6,0-4-0.1c-1.3-0.1-2.5-0.2-3.6-0.6c-1.5-0.6-2.7-1.6-3-3.2
				c-0.1-0.4-0.2-0.8-0.2-1.2c0-3.8,0-7.7,0-11.5c0-1.4,0.7-2.5,1.8-3.4c0.8-0.7,1.8-1,2.9-1.2c1.5-0.3,3-0.3,4.7-0.3
				c0.1,0,0.3,0,0.3-0.1C213.9,288.5,216.9,288.5,219.7,288.5z M215.4,293.7c-2,0-4,0-6,0c-0.3,0-0.5,0-0.8,0.1
				c-0.8,0.2-1.4,0.5-1.4,1.5c0,1.2,0,2.4,0,3.6c0,1.6,0,3.2,0,4.8c0,0.7,0.3,1,0.9,1.1c0.3,0.1,0.7,0.1,0.9,0.1c4.1,0,8.1,0,12.3,0
				c0.3,0,0.7-0.1,1-0.1c0.7-0.2,1-0.6,1-1.2c0-3,0-5.8,0-8.8c0-0.6-0.3-0.9-0.8-1c-0.3-0.1-0.7-0.1-1.1-0.1
				C219.5,293.7,217.5,293.7,215.4,293.7z"/>
			<path fill="#333333" d="M269.5,310c0.3-0.5,0.5-0.9,0.8-1.4c2.1-3.8,4.2-7.6,6.4-11.5c1.4-2.6,3-5.3,4.4-8
				c0.1-0.2,0.3-0.3,0.4-0.3c2.5,0,5,0,7.5,0c0.2,0,0.3,0,0.5,0c0.1,0,0.2,0.2,0.3,0.3c0.8,1.4,1.5,2.7,2.2,4.1
				c1.6,2.9,3.2,5.8,4.7,8.7c1.4,2.6,2.9,5.3,4.3,7.8c0,0.1,0.1,0.2,0.1,0.3c-0.3,0-0.4,0-0.7,0c-2.1,0-4.2,0-6.4,0
				c-0.2,0-0.3-0.1-0.4-0.3c-0.6-1.1-1.1-2.1-1.7-3.2c-0.1-0.2-0.2-0.2-0.3-0.2c-4.2,0-8.5,0-12.6,0c-0.2,0-0.3,0.1-0.3,0.2
				c-0.6,1-1.1,2-1.7,3.1c-0.2,0.3-0.3,0.3-0.6,0.3c-2.2,0-4.4,0-6.6,0C269.6,310,269.6,310,269.5,310z M281.2,301.8
				c0.6,0.1,8,0.1,8.3-0.1c-1.4-2.5-2.7-5.1-4.2-7.7C283.9,296.6,282.5,299.1,281.2,301.8z"/>
			<path fill="#333333" d="M258.6,288.9c-4,3.4-8,6.8-12,10.2c4.6,3.6,9.1,7.2,13.7,10.8c-0.2,0-0.3,0-0.3,0c-3,0-5.8,0-8.8,0
				c-0.3,0-0.4-0.1-0.6-0.2c-1.4-1.4-3-2.6-4.4-4c-1.5-1.4-3.1-2.8-4.7-4.2c-0.8-0.8-1.7-1.5-2.5-2.3c-0.1-0.1-0.2-0.2-0.3-0.3
				c0,3.6,0,7.2,0,10.8c-2.2,0-4.4,0-6.6,0c0-0.1,0-0.3,0-0.3c0-6.8,0-13.6,0-20.3c0-0.3,0-0.3,0.3-0.3c2,0,4.1,0,6.1,0
				c0,0,0,0,0.1,0c0,3.4,0,6.8,0,10.2c0,0,0.1,0,0.1,0.1c0.3-0.3,0.5-0.5,0.8-0.7c1.8-1.6,3.6-3.2,5.4-4.9c1.6-1.4,3.3-3,4.9-4.4
				c0.2-0.2,0.3-0.3,0.6-0.3c2.6,0,5.3,0,8,0C258.4,288.9,258.5,288.9,258.6,288.9L258.6,288.9z"/>
			<path fill="#333333" d="M261.6,309.9c0-7,0-14.1,0-21.1c0.1,0,0.2,0,0.3,0c1.9,0,4,0,5.9,0c0.3,0,0.3,0.1,0.3,0.3
				c0,6.9,0,13.6,0,20.5c0,0.2,0,0.3-0.3,0.3C265.8,309.9,263.7,309.9,261.6,309.9C261.8,310,261.7,309.9,261.6,309.9z"/>
		</g>
	</g>
</g>
</svg>
