<?xml version="1.0" encoding="utf-8"?>
<!-- Generator: Adobe Illustrator 18.1.1, SVG Export Plug-In . SVG Version: 6.00 Build 0)  -->
<!DOCTYPE svg PUBLIC "-//W3C//DTD SVG 1.1//EN" "http://www.w3.org/Graphics/SVG/1.1/DTD/svg11.dtd">
<svg version="1.1" id="Layer_1" xmlns="http://www.w3.org/2000/svg" xmlns:xlink="http://www.w3.org/1999/xlink" x="0px" y="0px"
	 viewBox="0 0 42.1 25.7" style="enable-background:new 0 0 42.1 25.7;" xml:space="preserve">
<style type="text/css">
	.st0{fill:#F1F0EE;}
</style>
<path class="st0" d="M15.5,8.3c-3.2,0-5.7,2.7-5.7,6c0,3.3,2.6,6,5.7,6c3.2,0,5.7-2.7,5.7-6C21.2,11,18.7,8.3,15.5,8.3z M14.5,18.2
	c-1.3,0-2.4-1.1-2.4-2.5c0-1.4,1.1-2.5,2.4-2.5c1.3,0,2.4,1.1,2.4,2.5C16.9,17.1,15.8,18.2,14.5,18.2z M21,0
	c8.8,0,14.5,0.8,17.1,2.4c2.6,1.6,3.9,5.1,3.9,10.4c0,5.4-1.3,8.8-3.9,10.4c-2.6,1.6-8.3,2.4-17.1,2.4c-8.8,0-14.4-0.8-17.1-2.4
	C1.3,21.7,0,18.2,0,12.9C0,7.5,1.3,4,3.9,2.4C6.6,0.8,12.2,0,21,0z M21,3C14.8,3,11,3.5,9.6,4.6c-1.5,1.1-2.2,3.8-2.2,8.3
	c0,4.5,0.7,7.2,2.2,8.3c1.5,1.1,5.3,1.6,11.5,1.6c6.2,0,10-0.5,11.5-1.6c1.5-1.1,2.2-3.8,2.2-8.3c0-4.5-0.7-7.2-2.2-8.3
	C31,3.5,27.2,3,21,3z"/>
</svg>
